<svg width="100" height="20" viewBox="0 0 100 20" fill="none" xmlns="http://www.w3.org/2000/svg">
<path d="M0 0.5H19L5.5 6L0 19.5V0.5Z" fill="#5847F1"/>
<path d="M7 7.5H19L10.4737 10.9737L7 19.5V7.5Z" fill="white"/>
<path d="M28.5759 5.56827V3.96909H36.978V5.56827H33.7231V14.5H31.8308V5.56827H28.5759ZM39.7136 14.6594C39.2131 14.6594 38.7623 14.5703 38.3612 14.392C37.9636 14.2103 37.6482 13.9429 37.4151 13.5899C37.1854 13.2368 37.0706 12.8014 37.0706 12.2838C37.0706 11.8381 37.1528 11.4696 37.3174 11.1782C37.4819 10.8869 37.7065 10.6538 37.991 10.4789C38.2755 10.3041 38.596 10.1721 38.9526 10.083C39.3125 9.99043 39.6844 9.92358 40.0684 9.88244C40.5312 9.83445 40.9065 9.7916 41.1945 9.75389C41.4824 9.71276 41.6916 9.65105 41.8218 9.56878C41.9555 9.48308 42.0224 9.3511 42.0224 9.17284V9.14199C42.0224 8.75462 41.9075 8.45467 41.6778 8.24213C41.4482 8.02959 41.1174 7.92332 40.6854 7.92332C40.2295 7.92332 39.8678 8.02274 39.6005 8.22156C39.3365 8.42039 39.1582 8.65521 39.0657 8.92602L37.3277 8.6792C37.4648 8.19928 37.691 7.7982 38.0064 7.47597C38.3218 7.1503 38.7075 6.90691 39.1634 6.7458C39.6193 6.58125 40.1232 6.49898 40.6751 6.49898C41.0557 6.49898 41.4345 6.54354 41.8115 6.63267C42.1886 6.7218 42.5331 6.8692 42.8451 7.07489C43.157 7.27714 43.4073 7.5531 43.5958 7.90276C43.7878 8.25241 43.8838 8.68949 43.8838 9.21398V14.5H42.0943V13.415H42.0326C41.9195 13.6344 41.7601 13.8401 41.5544 14.0321C41.3522 14.2206 41.0968 14.3732 40.7883 14.4897C40.4832 14.6028 40.1249 14.6594 39.7136 14.6594ZM40.1969 13.2916C40.5706 13.2916 40.8945 13.2179 41.1688 13.0705C41.443 12.9197 41.6538 12.7209 41.8012 12.474C41.9521 12.2272 42.0275 11.9581 42.0275 11.6667V10.736C41.9692 10.784 41.8698 10.8286 41.7293 10.8697C41.5921 10.9109 41.4379 10.9468 41.2665 10.9777C41.0951 11.0086 40.9254 11.036 40.7574 11.06C40.5894 11.084 40.4438 11.1045 40.3203 11.1217C40.0427 11.1594 39.7941 11.2211 39.5747 11.3068C39.3554 11.3925 39.1822 11.5125 39.0554 11.6667C38.9286 11.8176 38.8651 12.013 38.8651 12.2529C38.8651 12.5957 38.9903 12.8545 39.2405 13.0294C39.4908 13.2042 39.8096 13.2916 40.1969 13.2916ZM51.9979 8.68949L50.301 8.8746C50.2531 8.7032 50.1691 8.54208 50.0491 8.39125C49.9325 8.24042 49.7748 8.11872 49.576 8.02616C49.3772 7.93361 49.1338 7.88733 48.8459 7.88733C48.4585 7.88733 48.1328 7.97132 47.8689 8.13929C47.6083 8.30726 47.4798 8.52494 47.4832 8.79233C47.4798 9.02201 47.5638 9.20884 47.7352 9.35281C47.91 9.49679 48.198 9.61506 48.599 9.70761L49.9462 9.99557C50.6936 10.1567 51.2489 10.4121 51.6123 10.7617C51.9791 11.1114 52.1642 11.569 52.1676 12.1347C52.1642 12.6317 52.0185 13.0705 51.7305 13.451C51.446 13.8281 51.0501 14.1229 50.5427 14.3355C50.0354 14.548 49.4526 14.6543 48.7944 14.6543C47.8277 14.6543 47.0496 14.452 46.4599 14.0475C45.8703 13.6396 45.5189 13.0722 45.4058 12.3455L47.221 12.1707C47.3032 12.5272 47.4781 12.7963 47.7455 12.978C48.0128 13.1596 48.3608 13.2505 48.7893 13.2505C49.2315 13.2505 49.5863 13.1596 49.8537 12.978C50.1245 12.7963 50.2599 12.5717 50.2599 12.3043C50.2599 12.0781 50.1725 11.8913 49.9977 11.7439C49.8263 11.5965 49.5589 11.4833 49.1955 11.4045L47.8483 11.1217C47.0907 10.964 46.5302 10.6983 46.1668 10.3247C45.8035 9.94758 45.6235 9.47108 45.6269 8.89517C45.6235 8.40839 45.7555 7.98674 46.0229 7.63023C46.2937 7.27028 46.6691 6.99261 47.149 6.79722C47.6323 6.59839 48.1894 6.49898 48.8201 6.49898C49.7457 6.49898 50.4742 6.69609 51.0055 7.09031C51.5403 7.48454 51.8711 8.01759 51.9979 8.68949ZM55.3994 12.0215L55.3942 9.77446H55.6925L58.5309 6.60182H60.706L57.2145 10.4892H56.8289L55.3994 12.0215ZM53.7025 14.5V3.96909H55.5639V14.5H53.7025ZM58.6594 14.5L56.0884 10.9057L57.3431 9.59449L60.886 14.5H58.6594ZM60.7458 5.56827V3.96909H69.1479V5.56827H65.893V14.5H64.0007V5.56827H60.7458ZM69.8652 14.5V6.60182H71.6701V7.91818H71.7524C71.8964 7.46225 72.1432 7.11088 72.4928 6.86406C72.8459 6.61382 73.2487 6.48869 73.7012 6.48869C73.8041 6.48869 73.9189 6.49384 74.0457 6.50412C74.176 6.51098 74.284 6.52297 74.3697 6.54011V8.25241C74.2908 8.22499 74.1657 8.20099 73.9943 8.18043C73.8263 8.15643 73.6635 8.14443 73.5058 8.14443C73.1664 8.14443 72.8613 8.21813 72.5905 8.36554C72.3231 8.50952 72.1123 8.71006 71.9581 8.96716C71.8038 9.22426 71.7267 9.52079 71.7267 9.85673V14.5H69.8652ZM77.7377 14.6594C77.2372 14.6594 76.7864 14.5703 76.3854 14.392C75.9877 14.2103 75.6723 13.9429 75.4392 13.5899C75.2095 13.2368 75.0947 12.8014 75.0947 12.2838C75.0947 11.8381 75.177 11.4696 75.3415 11.1782C75.5061 10.8869 75.7306 10.6538 76.0151 10.4789C76.2997 10.3041 76.6202 10.1721 76.9767 10.083C77.3366 9.99043 77.7086 9.92358 78.0925 9.88244C78.5553 9.83445 78.9307 9.7916 79.2186 9.75389C79.5066 9.71276 79.7157 9.65105 79.846 9.56878C79.9797 9.48308 80.0465 9.3511 80.0465 9.17284V9.14199C80.0465 8.75462 79.9317 8.45467 79.702 8.24213C79.4723 8.02959 79.1415 7.92332 78.7096 7.92332C78.2536 7.92332 77.892 8.02274 77.6246 8.22156C77.3606 8.42039 77.1824 8.65521 77.0898 8.92602L75.3518 8.6792C75.4889 8.19928 75.7152 7.7982 76.0306 7.47597C76.3459 7.1503 76.7316 6.90691 77.1875 6.7458C77.6434 6.58125 78.1474 6.49898 78.6993 6.49898C79.0798 6.49898 79.4586 6.54354 79.8357 6.63267C80.2128 6.7218 80.5573 6.8692 80.8692 7.07489C81.1812 7.27714 81.4314 7.5531 81.62 7.90276C81.8119 8.25241 81.9079 8.68949 81.9079 9.21398V14.5H80.1185V13.415H80.0568C79.9437 13.6344 79.7843 13.8401 79.5786 14.0321C79.3763 14.2206 79.1209 14.3732 78.8124 14.4897C78.5073 14.6028 78.1491 14.6594 77.7377 14.6594ZM78.2211 13.2916C78.5947 13.2916 78.9187 13.2179 79.1929 13.0705C79.4672 12.9197 79.678 12.7209 79.8254 12.474C79.9762 12.2272 80.0516 11.9581 80.0516 11.6667V10.736C79.9934 10.784 79.894 10.8286 79.7534 10.8697C79.6163 10.9109 79.462 10.9468 79.2906 10.9777C79.1192 11.0086 78.9495 11.036 78.7816 11.06C78.6136 11.084 78.4679 11.1045 78.3445 11.1217C78.0668 11.1594 77.8183 11.2211 77.5989 11.3068C77.3795 11.3925 77.2064 11.5125 77.0795 11.6667C76.9527 11.8176 76.8893 12.013 76.8893 12.2529C76.8893 12.5957 77.0144 12.8545 77.2647 13.0294C77.5149 13.2042 77.8337 13.2916 78.2211 13.2916ZM87.2248 14.6543C86.4363 14.6543 85.7593 14.4811 85.1937 14.1349C84.6315 13.7887 84.1978 13.3105 83.8927 12.7003C83.5911 12.0867 83.4402 11.3805 83.4402 10.5818C83.4402 9.7796 83.5945 9.07171 83.903 8.4581C84.2116 7.84105 84.6469 7.36113 85.2091 7.01832C85.7747 6.67209 86.4432 6.49898 87.2145 6.49898C87.8555 6.49898 88.4229 6.61724 88.9165 6.85378C89.4136 7.08688 89.8095 7.41769 90.1043 7.84619C90.3991 8.27127 90.5671 8.76833 90.6083 9.33739H88.8291C88.7571 8.95688 88.5857 8.63978 88.3149 8.38611C88.0475 8.12901 87.6893 8.00045 87.2402 8.00045C86.8597 8.00045 86.5255 8.1033 86.2375 8.30898C85.9496 8.51123 85.725 8.80261 85.5639 9.18313C85.4062 9.56364 85.3274 10.0196 85.3274 10.5509C85.3274 11.0891 85.4062 11.5519 85.5639 11.9393C85.7216 12.3232 85.9427 12.6197 86.2272 12.8288C86.5152 13.0345 86.8528 13.1374 87.2402 13.1374C87.5145 13.1374 87.7596 13.0859 87.9755 12.9831C88.1949 12.8768 88.3783 12.7243 88.5257 12.5255C88.6731 12.3266 88.7743 12.085 88.8291 11.8004H90.6083C90.5637 12.3592 90.3991 12.8545 90.1146 13.2865C89.8301 13.715 89.4427 14.0509 88.9525 14.2943C88.4623 14.5343 87.8864 14.6543 87.2248 14.6543ZM93.8336 12.0215L93.8285 9.77446H94.1267L96.9651 6.60182H99.1402L95.6487 10.4892H95.2631L93.8336 12.0215ZM92.1367 14.5V3.96909H93.9982V14.5H92.1367ZM97.0937 14.5L94.5226 10.9057L95.7773 9.59449L99.3202 14.5H97.0937Z" fill="white"/>
</svg>
