<svg width="174" height="33" viewBox="0 0 174 33" fill="none" xmlns="http://www.w3.org/2000/svg">
<path d="M0.157959 0H33.158L9.71059 9.55263L0.157959 33V0Z" fill="#5847F1"/>
<path d="M12.3157 12.1578H33.1578L18.3489 18.1911L12.3157 32.9999V12.1578Z" fill="#202022"/>
<path d="M49.7898 8.48699V5.70947H64.3829V8.48699H58.7297V24H55.4431V8.48699H49.7898ZM69.1342 24.2769C68.2649 24.2769 67.482 24.1221 66.7854 23.8125C66.0947 23.4969 65.5469 23.0325 65.1421 22.4192C64.7432 21.806 64.5437 21.0498 64.5437 20.1508C64.5437 19.3768 64.6866 18.7367 64.9724 18.2306C65.2582 17.7245 65.6482 17.3197 66.1423 17.016C66.6365 16.7124 67.1932 16.4831 67.8124 16.3283C68.4376 16.1676 69.0836 16.0515 69.7504 15.98C70.5542 15.8967 71.2062 15.8223 71.7063 15.7568C72.2064 15.6853 72.5696 15.5781 72.7959 15.4352C73.0281 15.2864 73.1442 15.0572 73.1442 14.7476V14.694C73.1442 14.0212 72.9447 13.5002 72.5458 13.1311C72.1469 12.7619 71.5723 12.5774 70.8221 12.5774C70.0303 12.5774 69.4021 12.75 68.9377 13.0953C68.4793 13.4407 68.1696 13.8485 68.0089 14.3189L64.9902 13.8902C65.2284 13.0566 65.6214 12.36 66.1691 11.8004C66.7169 11.2347 67.3867 10.812 68.1786 10.5322C68.9705 10.2464 69.8457 10.1035 70.8043 10.1035C71.4652 10.1035 72.1231 10.1809 72.778 10.3357C73.4329 10.4905 74.0313 10.7465 74.5731 11.1038C75.1149 11.455 75.5496 11.9343 75.877 12.5416C76.2105 13.1489 76.3772 13.9081 76.3772 14.819V24H73.2692V22.1156H73.162C72.9656 22.4966 72.6887 22.8539 72.3315 23.1873C71.9802 23.5148 71.5366 23.7797 71.0007 23.9821C70.4708 24.1786 69.8487 24.2769 69.1342 24.2769ZM69.9737 21.9012C70.6227 21.9012 71.1853 21.7732 71.6616 21.5172C72.138 21.2552 72.5041 20.9099 72.7601 20.4812C73.0221 20.0525 73.1531 19.5851 73.1531 19.0791V17.4626C73.0519 17.5459 72.8792 17.6233 72.6351 17.6948C72.3969 17.7662 72.129 17.8287 71.8313 17.8823C71.5336 17.9359 71.2389 17.9835 70.9472 18.0252C70.6554 18.0669 70.4024 18.1026 70.188 18.1324C69.7058 18.1979 69.2741 18.305 68.8931 18.4539C68.512 18.6027 68.2113 18.8111 67.991 19.0791C67.7707 19.341 67.6606 19.6804 67.6606 20.0972C67.6606 20.6926 67.8779 21.1421 68.3125 21.4458C68.7472 21.7494 69.3009 21.9012 69.9737 21.9012ZM90.4702 13.9081L87.523 14.2296C87.4396 13.9319 87.2937 13.652 87.0853 13.3901C86.8829 13.1281 86.609 12.9167 86.2637 12.756C85.9184 12.5952 85.4956 12.5148 84.9955 12.5148C84.3227 12.5148 83.7571 12.6607 83.2986 12.9525C82.8461 13.2442 82.6229 13.6223 82.6288 14.0867C82.6229 14.4856 82.7687 14.8101 83.0664 15.0601C83.3701 15.3102 83.8702 15.5156 84.5668 15.6764L86.9067 16.1765C88.2047 16.4563 89.1692 16.8999 89.8003 17.5072C90.4374 18.1145 90.7589 18.9094 90.7649 19.8918C90.7589 20.7551 90.5059 21.5172 90.0057 22.1781C89.5116 22.833 88.8239 23.3451 87.9427 23.7142C87.0615 24.0834 86.0493 24.2679 84.9062 24.2679C83.2272 24.2679 81.8756 23.9166 80.8516 23.2141C79.8275 22.5056 79.2172 21.5202 79.0207 20.2579L82.1733 19.9543C82.3162 20.5735 82.6199 21.0409 83.0843 21.3564C83.5487 21.672 84.153 21.8298 84.8973 21.8298C85.6653 21.8298 86.2816 21.672 86.746 21.3564C87.2163 21.0409 87.4515 20.6509 87.4515 20.1865C87.4515 19.7935 87.2997 19.469 86.996 19.213C86.6983 18.957 86.2339 18.7605 85.6028 18.6236L83.2629 18.1324C81.9471 17.8585 80.9736 17.3971 80.3425 16.7481C79.7114 16.0932 79.3988 15.2656 79.4047 14.2653C79.3988 13.4198 79.628 12.6875 80.0924 12.0683C80.5628 11.4431 81.2147 10.9609 82.0483 10.6215C82.8878 10.2762 83.8553 10.1035 84.9508 10.1035C86.5584 10.1035 87.8236 10.4458 88.7465 11.1305C89.6753 11.8152 90.2499 12.7411 90.4702 13.9081ZM96.378 19.6953L96.369 15.7925H96.887L101.817 10.2821H105.595L99.5306 17.0339H98.8608L96.378 19.6953ZM93.4308 24V5.70947H96.6637V24H93.4308ZM102.04 24L97.5747 17.7573L99.7538 15.4799L105.907 24H102.04ZM105.664 8.48699V5.70947H120.257V8.48699H114.604V24H111.317V8.48699H105.664ZM121.503 24V10.2821H124.638V12.5684H124.781C125.031 11.7765 125.459 11.1663 126.067 10.7376C126.68 10.3029 127.379 10.0856 128.165 10.0856C128.344 10.0856 128.543 10.0946 128.764 10.1124C128.99 10.1243 129.178 10.1452 129.326 10.1749V13.1489C129.189 13.1013 128.972 13.0596 128.674 13.0239C128.383 12.9822 128.1 12.9614 127.826 12.9614C127.237 12.9614 126.707 13.0894 126.236 13.3454C125.772 13.5955 125.406 13.9438 125.138 14.3903C124.87 14.8369 124.736 15.3519 124.736 15.9354V24H121.503ZM135.176 24.2769C134.307 24.2769 133.524 24.1221 132.827 23.8125C132.137 23.4969 131.589 23.0325 131.184 22.4192C130.785 21.806 130.586 21.0498 130.586 20.1508C130.586 19.3768 130.729 18.7367 131.014 18.2306C131.3 17.7245 131.69 17.3197 132.184 17.016C132.678 16.7124 133.235 16.4831 133.854 16.3283C134.479 16.1676 135.125 16.0515 135.792 15.98C136.596 15.8967 137.248 15.8223 137.748 15.7568C138.248 15.6853 138.612 15.5781 138.838 15.4352C139.07 15.2864 139.186 15.0572 139.186 14.7476V14.694C139.186 14.0212 138.987 13.5002 138.588 13.1311C138.189 12.7619 137.614 12.5774 136.864 12.5774C136.072 12.5774 135.444 12.75 134.98 13.0953C134.521 13.4407 134.212 13.8485 134.051 14.3189L131.032 13.8902C131.27 13.0566 131.663 12.36 132.211 11.8004C132.759 11.2347 133.429 10.812 134.22 10.5322C135.012 10.2464 135.888 10.1035 136.846 10.1035C137.507 10.1035 138.165 10.1809 138.82 10.3357C139.475 10.4905 140.073 10.7465 140.615 11.1038C141.157 11.455 141.591 11.9343 141.919 12.5416C142.252 13.1489 142.419 13.9081 142.419 14.819V24H139.311V22.1156H139.204C139.007 22.4966 138.731 22.8539 138.373 23.1873C138.022 23.5148 137.579 23.7797 137.043 23.9821C136.513 24.1786 135.891 24.2769 135.176 24.2769ZM136.016 21.9012C136.665 21.9012 137.227 21.7732 137.704 21.5172C138.18 21.2552 138.546 20.9099 138.802 20.4812C139.064 20.0525 139.195 19.5851 139.195 19.0791V17.4626C139.094 17.5459 138.921 17.6233 138.677 17.6948C138.439 17.7662 138.171 17.8287 137.873 17.8823C137.576 17.9359 137.281 17.9835 136.989 18.0252C136.697 18.0669 136.444 18.1026 136.23 18.1324C135.748 18.1979 135.316 18.305 134.935 18.4539C134.554 18.6027 134.253 18.8111 134.033 19.0791C133.813 19.341 133.703 19.6804 133.703 20.0972C133.703 20.6926 133.92 21.1421 134.354 21.4458C134.789 21.7494 135.343 21.9012 136.016 21.9012ZM151.654 24.2679C150.284 24.2679 149.108 23.9673 148.126 23.3659C147.149 22.7646 146.396 21.934 145.866 20.8742C145.342 19.8084 145.08 18.5819 145.08 17.1946C145.08 15.8014 145.348 14.5719 145.884 13.5062C146.42 12.4345 147.176 11.6009 148.153 11.0055C149.135 10.4042 150.296 10.1035 151.636 10.1035C152.749 10.1035 153.735 10.3089 154.592 10.7197C155.455 11.1246 156.143 11.6991 156.655 12.4434C157.167 13.1817 157.459 14.045 157.53 15.0334H154.44C154.315 14.3725 154.017 13.8217 153.547 13.3811C153.083 12.9346 152.46 12.7113 151.68 12.7113C151.02 12.7113 150.439 12.8899 149.939 13.2472C149.439 13.5985 149.049 14.1045 148.769 14.7654C148.495 15.4263 148.358 16.2182 148.358 17.1411C148.358 18.0758 148.495 18.8796 148.769 19.5524C149.043 20.2192 149.427 20.7343 149.921 21.0975C150.421 21.4547 151.008 21.6333 151.68 21.6333C152.157 21.6333 152.582 21.544 152.958 21.3654C153.339 21.1808 153.657 20.9159 153.913 20.5705C154.169 20.2252 154.345 19.8054 154.44 19.3113H157.53C157.453 20.2818 157.167 21.1421 156.673 21.8923C156.179 22.6365 155.506 23.22 154.654 23.6428C153.803 24.0595 152.803 24.2679 151.654 24.2679ZM163.132 19.6953L163.123 15.7925H163.641L168.571 10.2821H172.349L166.285 17.0339H165.615L163.132 19.6953ZM160.185 24V5.70947H163.418V24H160.185ZM168.794 24L164.329 17.7573L166.508 15.4799L172.661 24H168.794Z" fill="#202022"/>
</svg>
